<svg width="353" height="343" viewBox="0 0 353 343" fill="none" xmlns="http://www.w3.org/2000/svg">
<path d="M73.85 218.83H13V191.36L73.85 119.02H102.97V192.92H118.06V218.83H102.97V241.31H73.85V218.83ZM73.85 192.92V155.08L41.69 192.92H73.85Z" fill="#5C33FF"/>
<path d="M128.47 180.7C128.47 157.84 132.583 141.84 140.81 132.7C149.037 123.56 161.573 118.993 178.42 119C186.507 119 193.15 120 198.35 122C203.074 123.702 207.399 126.353 211.06 129.79C214.146 132.736 216.759 136.139 218.81 139.88C220.839 143.786 222.368 147.932 223.36 152.22C225.621 161.381 226.749 170.784 226.72 180.22C226.72 202.033 223.03 217.997 215.65 228.11C208.27 238.223 195.56 243.283 177.52 243.29C167.4 243.29 159.223 241.677 152.99 238.45C146.707 235.171 141.414 230.272 137.66 224.26C134.76 219.833 132.503 213.777 130.89 206.09C129.215 197.732 128.404 189.224 128.47 180.7ZM161.61 180.78C161.61 196.113 162.96 206.57 165.66 212.15C168.36 217.73 172.283 220.533 177.43 220.56C179.063 220.578 180.684 220.272 182.198 219.659C183.712 219.046 185.089 218.139 186.25 216.99C188.743 214.61 190.577 210.85 191.75 205.71C192.923 200.57 193.51 192.57 193.51 181.71C193.51 165.75 192.157 155.02 189.45 149.52C186.743 144.02 182.683 141.273 177.27 141.28C171.75 141.28 167.75 144.083 165.27 149.69C162.79 155.297 161.57 165.66 161.61 180.78Z" fill="#5C33FF"/>
<path d="M297.91 218.83H237.06V191.36L297.91 119.02H327.03V192.92H342.17V218.83H327.03V241.31H297.91V218.83ZM297.91 192.92V155.08L265.76 192.92H297.91Z" fill="#5C33FF"/>
<g opacity="0.3">
<path d="M129.35 77.9403C129.35 78.3106 129.24 78.6725 129.034 78.9803C128.828 79.288 128.536 79.5277 128.193 79.6689C127.851 79.8102 127.475 79.8466 127.112 79.7736C126.749 79.7007 126.415 79.5216 126.154 79.2591C125.893 78.9965 125.716 78.6624 125.645 78.299C125.574 77.9356 125.612 77.5593 125.755 77.2178C125.898 76.8763 126.14 76.5849 126.448 76.3806C126.757 76.1763 127.12 76.0684 127.49 76.0703C127.735 76.0703 127.978 76.1188 128.204 76.2129C128.431 76.307 128.636 76.4449 128.809 76.6186C128.982 76.7924 129.119 76.9987 129.211 77.2255C129.304 77.4523 129.351 77.6952 129.35 77.9403Z" fill="#5C33FF"/>
<path d="M1.32 149.77C2.04902 149.77 2.64 149.179 2.64 148.45C2.64 147.721 2.04902 147.13 1.32 147.13C0.590984 147.13 0 147.721 0 148.45C0 149.179 0.590984 149.77 1.32 149.77Z" fill="#5C33FF"/>
<path d="M219.4 342.54C220.444 342.54 221.29 341.694 221.29 340.65C221.29 339.606 220.444 338.76 219.4 338.76C218.356 338.76 217.51 339.606 217.51 340.65C217.51 341.694 218.356 342.54 219.4 342.54Z" fill="#5C33FF"/>
<path d="M264.85 265.64C265.579 265.64 266.17 265.049 266.17 264.32C266.17 263.591 265.579 263 264.85 263C264.121 263 263.53 263.591 263.53 264.32C263.53 265.049 264.121 265.64 264.85 265.64Z" fill="#5C33FF"/>
<path d="M352.52 27.9401C352.52 28.2012 352.442 28.4564 352.297 28.6735C352.152 28.8905 351.946 29.0597 351.705 29.1596C351.464 29.2595 351.198 29.2857 350.942 29.2347C350.686 29.1838 350.451 29.0581 350.267 28.8735C350.082 28.6889 349.956 28.4537 349.905 28.1976C349.854 27.9416 349.88 27.6762 349.98 27.435C350.08 27.1938 350.249 26.9876 350.467 26.8426C350.684 26.6975 350.939 26.6201 351.2 26.6201C351.55 26.6201 351.886 26.7592 352.133 27.0067C352.381 27.2543 352.52 27.59 352.52 27.9401Z" fill="#5C33FF"/>
<path d="M101.1 1.32C101.1 1.58107 101.023 1.83628 100.878 2.05335C100.732 2.27043 100.526 2.43961 100.285 2.53952C100.044 2.63943 99.7785 2.66557 99.5224 2.61464C99.2664 2.56371 99.0312 2.43799 98.8466 2.25338C98.662 2.06877 98.5363 1.83358 98.4853 1.57752C98.4344 1.32147 98.4605 1.05606 98.5604 0.814857C98.6604 0.573659 98.8295 0.367501 99.0466 0.222458C99.2637 0.0774144 99.5189 0 99.78 0C100.129 0.00261642 100.463 0.142528 100.71 0.389511C100.957 0.636494 101.097 0.970723 101.1 1.32Z" fill="#5C33FF"/>
<path d="M206.05 70.5804C206.779 70.5804 207.37 69.9895 207.37 69.2604C207.37 68.5314 206.779 67.9404 206.05 67.9404C205.321 67.9404 204.73 68.5314 204.73 69.2604C204.73 69.9895 205.321 70.5804 206.05 70.5804Z" fill="#5C33FF"/>
</g>
<path d="M69.5799 70.5895C81.6805 70.5895 91.4899 60.7801 91.4899 48.6795C91.4899 36.579 81.6805 26.7695 69.5799 26.7695C57.4794 26.7695 47.6699 36.579 47.6699 48.6795C47.6699 60.7801 57.4794 70.5895 69.5799 70.5895Z" fill="#5C33FF"/>
<path opacity="0.7" d="M69.5799 70.5895C81.6805 70.5895 91.4899 60.7801 91.4899 48.6795C91.4899 36.579 81.6805 26.7695 69.5799 26.7695C57.4794 26.7695 47.6699 36.579 47.6699 48.6795C47.6699 60.7801 57.4794 70.5895 69.5799 70.5895Z" fill="white"/>
<path opacity="0.2" d="M62.03 32.1505C59.0461 32.1413 56.0921 32.7437 53.35 33.9205C49.98 37.6244 47.9798 42.3705 47.6821 47.3692C47.3844 52.3679 48.8072 57.3179 51.7139 61.3956C54.6205 65.4733 58.8356 68.4328 63.6581 69.7818C68.4805 71.1309 73.6195 70.7881 78.22 68.8105C81.0723 65.6671 82.9507 61.7632 83.6269 57.5728C84.3032 53.3825 83.7483 49.0859 82.0296 45.2048C80.3109 41.3238 77.5024 38.0252 73.9451 35.7096C70.3877 33.394 66.2346 32.1611 61.99 32.1605L62.03 32.1505Z" fill="#5C33FF"/>
<path opacity="0.2" d="M59.8501 37.9404C59.8501 38.336 59.7328 38.7227 59.513 39.0516C59.2933 39.3805 58.9809 39.6368 58.6155 39.7882C58.25 39.9396 57.8479 39.9792 57.4599 39.902C57.072 39.8248 56.7156 39.6343 56.4359 39.3546C56.1562 39.0749 55.9657 38.7186 55.8885 38.3306C55.8114 37.9426 55.851 37.5405 56.0023 37.1751C56.1537 36.8096 56.4101 36.4973 56.739 36.2775C57.0679 36.0577 57.4545 35.9404 57.8501 35.9404C58.3805 35.9404 58.8892 36.1511 59.2643 36.5262C59.6394 36.9013 59.8501 37.41 59.8501 37.9404Z" fill="#5C33FF"/>
<path opacity="0.2" d="M83.4099 35.9404C83.4099 36.336 83.2926 36.7227 83.0729 37.0516C82.8531 37.3805 82.5407 37.6368 82.1753 37.7882C81.8098 37.9396 81.4077 37.9792 81.0197 37.902C80.6318 37.8248 80.2754 37.6343 79.9957 37.3546C79.716 37.0749 79.5255 36.7186 79.4483 36.3306C79.3712 35.9426 79.4108 35.5405 79.5621 35.1751C79.7135 34.8096 79.9699 34.4973 80.2988 34.2775C80.6277 34.0577 81.0143 33.9404 81.4099 33.9404C81.9403 33.9404 82.4491 34.1511 82.8241 34.5262C83.1992 34.9013 83.4099 35.41 83.4099 35.9404Z" fill="#5C33FF"/>
<path opacity="0.2" d="M79.4101 50.2204C79.4101 50.8692 79.2177 51.5033 78.8573 52.0427C78.4969 52.5821 77.9846 53.0025 77.3853 53.2508C76.786 53.499 76.1265 53.564 75.4902 53.4374C74.854 53.3108 74.2695 52.9985 73.8108 52.5397C73.3521 52.081 73.0397 51.4966 72.9131 50.8603C72.7866 50.2241 72.8515 49.5646 73.0998 48.9652C73.348 48.3659 73.7684 47.8536 74.3078 47.4932C74.8472 47.1328 75.4814 46.9404 76.1301 46.9404C77 46.9404 77.8343 47.286 78.4494 47.9011C79.0645 48.5162 79.4101 49.3505 79.4101 50.2204Z" fill="#5C33FF"/>
<path opacity="0.2" d="M68.99 59.5704C68.99 60.4367 68.7331 61.2835 68.2518 62.0038C67.7705 62.7241 67.0865 63.2855 66.2861 63.617C65.4858 63.9485 64.6051 64.0353 63.7555 63.8663C62.9058 63.6973 62.1254 63.2801 61.5129 62.6675C60.9003 62.055 60.4831 61.2746 60.3141 60.4249C60.1451 59.5753 60.2319 58.6946 60.5634 57.8943C60.8949 57.0939 61.4563 56.4099 62.1766 55.9286C62.8969 55.4473 63.7437 55.1904 64.61 55.1904C65.7716 55.1904 66.8857 55.6519 67.7071 56.4733C68.5285 57.2947 68.99 58.4088 68.99 59.5704Z" fill="#5C33FF"/>
<path d="M329.25 312.967C331.689 302.63 325.288 292.273 314.951 289.833C304.615 287.394 294.258 293.795 291.818 304.132C289.379 314.468 295.78 324.825 306.117 327.265C316.453 329.705 326.81 323.303 329.25 312.967Z" fill="#5C33FF"/>
<path opacity="0.3" d="M329.25 312.967C331.689 302.63 325.288 292.273 314.951 289.833C304.615 287.394 294.258 293.795 291.818 304.132C289.379 314.468 295.78 324.825 306.117 327.265C316.453 329.705 326.81 323.303 329.25 312.967Z" fill="white"/>
<path opacity="0.4" d="M322.68 293.66C318.417 292.373 313.84 292.606 309.73 294.32C305.62 296.034 302.232 299.121 300.146 303.055C298.06 306.989 297.404 311.525 298.292 315.889C299.179 320.252 301.553 324.173 305.01 326.98C306.803 327.524 308.666 327.801 310.54 327.8C314.51 327.799 318.382 326.569 321.626 324.28C324.869 321.99 327.324 318.753 328.654 315.013C329.984 311.272 330.124 307.212 329.054 303.388C327.985 299.565 325.758 296.167 322.68 293.66Z" fill="#5C33FF"/>
<path d="M292.18 314.32C271.65 323.98 286.96 331.43 315.89 321.03C342.68 311.4 352.89 299.26 328.89 303.03C330.18 308.08 296.63 321.15 292.18 314.32Z" fill="#5C33FF"/>
</svg>
