<svg width="400" height="400" viewBox="0 0 400 400" fill="none" xmlns="http://www.w3.org/2000/svg">
<path opacity="0.2" d="M364.62 141.412C331.858 165.336 289.446 196.935 277.738 272.827H275.24C286.632 197.778 327.496 165.428 360.27 141.412H364.62Z" fill="black"/>
<path d="M195.149 378.989C174.436 378.989 153.955 368.891 143.977 352.406C137.824 342.215 130.672 320.873 151.969 292.393L153.858 294.052C138.799 314.197 136.021 334.408 146.024 350.971C158.207 371.116 186.949 381.254 211.487 374.039C236.622 366.652 251.876 343.032 253.35 309.233C258.382 193.618 315.219 158.003 356.717 131.999C382.51 115.844 401.139 104.178 397.045 79.5438C396.472 76.1337 395.218 73.7769 393.183 72.3286C387.883 68.5498 377.527 71.1699 365.538 74.1851C342.011 80.11 309.797 88.2205 290.608 52.9475L292.716 51.6309C310.991 85.2449 340.927 77.7005 364.99 71.6439C377.527 68.4971 388.346 65.7717 394.523 70.1561C397.143 72.0126 398.751 74.9487 399.397 79.1093C403.795 105.548 383.558 118.24 357.911 134.303C316.888 160.004 260.721 195.198 255.75 309.418C254.215 344.441 238.303 368.943 212.084 376.646C206.56 378.235 200.865 379.024 195.149 378.989Z" fill="#5C33FF"/>
<path opacity="0.2" d="M195.149 378.989C174.436 378.989 153.955 368.891 143.977 352.406C137.824 342.215 130.672 320.873 151.969 292.393L153.858 294.052C138.799 314.197 136.021 334.408 146.024 350.971C158.207 371.116 186.949 381.254 211.487 374.039C236.622 366.652 251.876 343.032 253.35 309.233C258.382 193.618 315.219 158.003 356.717 131.999C382.51 115.844 401.139 104.178 397.045 79.5438C396.472 76.1337 395.218 73.7769 393.183 72.3286C387.883 68.5498 377.527 71.1699 365.538 74.1851C342.011 80.11 309.797 88.2205 290.608 52.9475L292.716 51.6309C310.991 85.2449 340.927 77.7005 364.99 71.6439C377.527 68.4971 388.346 65.7717 394.523 70.1561C397.143 72.0126 398.751 74.9487 399.397 79.1093C403.795 105.548 383.558 118.24 357.911 134.303C316.888 160.004 260.721 195.198 255.75 309.418C254.215 344.441 238.303 368.943 212.084 376.646C206.56 378.235 200.865 379.024 195.149 378.989Z" fill="white"/>
<path d="M265.521 21.8213C271.135 21.8563 276.712 22.8016 282.067 24.6257C282.067 24.6257 295.469 49.3393 297.053 55.0009C296.492 60.5834 287.781 69.7342 287.781 69.7342L265.521 21.8213Z" fill="#5C33FF"/>
<path opacity="0.3" d="M265.521 21.8213C271.135 21.8563 276.712 22.8016 282.067 24.6257C282.067 24.6257 295.469 49.3393 297.053 55.0009C296.492 60.5834 287.781 69.7342 287.781 69.7342L265.521 21.8213Z" fill="white"/>
<path d="M305.218 141.808C300.057 134.988 295.35 127.781 291.133 120.241C290.11 118.336 289.139 116.396 288.221 114.421C287.697 113.302 287.198 112.183 286.711 111.051C286.071 109.949 285.575 108.757 285.236 107.509C283.774 90.827 289.062 78.5427 284.018 65.1523L263.939 73.6316C263.939 73.6316 265.645 97.4893 269.544 111.814C271.98 120.675 277.439 128.338 282.714 135.435C284.359 137.647 285.943 139.925 287.588 142.15C289.233 144.375 290.89 146.179 292.461 148.272C294.837 151.446 295.617 154.487 293.826 158.226L293.521 158.819C293.01 159.793 295.398 160.899 296.908 158.819C299.345 155.422 299.004 155.632 301.124 152.736C302.415 150.985 303.89 149.076 305.169 147.469C305.786 146.679 306.129 145.682 306.138 144.648C306.146 143.614 305.821 142.61 305.218 141.808Z" fill="#5C33FF"/>
<path opacity="0.7" d="M305.218 141.808C300.057 134.988 295.35 127.781 291.133 120.241C290.11 118.336 289.139 116.396 288.221 114.421C287.697 113.302 287.198 112.183 286.711 111.051C286.071 109.949 285.575 108.757 285.236 107.509C283.774 90.827 289.062 78.5427 284.018 65.1523L263.939 73.6316C263.939 73.6316 265.645 97.4893 269.544 111.814C271.98 120.675 277.439 128.338 282.714 135.435C284.359 137.647 285.943 139.925 287.588 142.15C289.233 144.375 290.89 146.179 292.461 148.272C294.837 151.446 295.617 154.487 293.826 158.226L293.521 158.819C293.01 159.793 295.398 160.899 296.908 158.819C299.345 155.422 299.004 155.632 301.124 152.736C302.415 150.985 303.89 149.076 305.169 147.469C305.786 146.679 306.129 145.682 306.138 144.648C306.146 143.614 305.821 142.61 305.218 141.808Z" fill="white"/>
<path opacity="0.3" d="M300.305 134.947C297.119 138.638 293.582 141.957 289.754 144.848C290.278 145.48 290.789 146.165 291.313 146.771C295.146 143.972 298.627 140.649 301.669 136.883L300.305 134.947Z" fill="#5C33FF"/>
<path opacity="0.3" d="M305.216 141.807L305.07 141.623C304.132 142.785 303.587 144.257 303.523 145.797C303.444 146.853 303.603 147.915 303.986 148.891L305.143 147.403C305.748 146.621 306.086 145.638 306.099 144.619C306.112 143.6 305.801 142.607 305.216 141.807Z" fill="#5C33FF"/>
<path d="M260.747 37.6205C258.57 41.1427 255.959 44.3276 252.986 47.0872C251.337 48.6229 249.53 49.9483 247.601 51.0372C246.587 51.5985 245.537 52.0782 244.458 52.4723L243.629 52.762L243.361 52.841L242.788 53.0122C242.436 53.1026 242.077 53.1642 241.716 53.1965C240.688 53.2814 239.655 53.1791 238.658 52.8937C237.401 52.5082 236.197 51.946 235.076 51.2215C234.174 50.6517 233.3 50.032 232.457 49.365C230.933 48.1406 229.477 46.8217 228.095 45.4151C225.43 42.6863 222.984 39.7175 220.785 36.5409C220.361 35.922 220.151 35.1628 220.19 34.3942C220.229 33.6257 220.515 32.896 220.999 32.331C221.482 31.7661 222.134 31.4013 222.84 31.2998C223.546 31.1982 224.262 31.3661 224.866 31.7746H224.964C227.839 33.7496 230.739 35.8299 233.565 37.6864C235.003 38.5949 236.392 39.5165 237.769 40.2275C238.397 40.5831 239.044 40.8996 239.706 41.1755C240.118 41.3722 240.56 41.4881 241.01 41.5178C241.083 41.5178 241.009 41.4257 240.559 41.4388C240.417 41.4296 240.274 41.4296 240.132 41.4388L239.864 41.5046L240.266 41.2808C240.808 40.966 241.332 40.6188 241.838 40.2407C242.928 39.41 243.948 38.4759 244.884 37.4494C247.012 35.0388 249.006 32.4932 250.854 29.826C251.866 28.6018 253.266 27.8308 254.777 27.664C256.289 27.4972 257.803 27.9467 259.024 28.9244C260.244 29.9021 261.083 31.3374 261.374 32.9487C261.666 34.5599 261.39 36.2309 260.601 37.6337L260.747 37.6205Z" fill="#5C33FF"/>
<path opacity="0.7" d="M260.747 37.6205C258.57 41.1427 255.959 44.3276 252.986 47.0872C251.337 48.6229 249.53 49.9483 247.601 51.0372C246.587 51.5985 245.537 52.0782 244.458 52.4723L243.629 52.762L243.361 52.841L242.788 53.0122C242.436 53.1026 242.077 53.1642 241.716 53.1965C240.688 53.2814 239.655 53.1791 238.658 52.8937C237.401 52.5082 236.197 51.946 235.076 51.2215C234.174 50.6517 233.3 50.032 232.457 49.365C230.933 48.1406 229.477 46.8217 228.095 45.4151C225.43 42.6863 222.984 39.7175 220.785 36.5409C220.361 35.922 220.151 35.1628 220.19 34.3942C220.229 33.6257 220.515 32.896 220.999 32.331C221.482 31.7661 222.134 31.4013 222.84 31.2998C223.546 31.1982 224.262 31.3661 224.866 31.7746H224.964C227.839 33.7496 230.739 35.8299 233.565 37.6864C235.003 38.5949 236.392 39.5165 237.769 40.2275C238.397 40.5831 239.044 40.8996 239.706 41.1755C240.118 41.3722 240.56 41.4881 241.01 41.5178C241.083 41.5178 241.009 41.4257 240.559 41.4388C240.417 41.4296 240.274 41.4296 240.132 41.4388L239.864 41.5046L240.266 41.2808C240.808 40.966 241.332 40.6188 241.838 40.2407C242.928 39.41 243.948 38.4759 244.884 37.4494C247.012 35.0388 249.006 32.4932 250.854 29.826C251.866 28.6018 253.266 27.8308 254.777 27.664C256.289 27.4972 257.803 27.9467 259.024 28.9244C260.244 29.9021 261.083 31.3374 261.374 32.9487C261.666 34.5599 261.39 36.2309 260.601 37.6337L260.747 37.6205Z" fill="white"/>
<path d="M216.212 28.9582L217.638 31.5915C217.638 31.5915 218.722 35.0411 220.903 35.6731L226.824 33.606L226.52 33.0662C225.765 31.8285 225.85 29.419 226.106 27.4177C226.362 25.4164 225.411 25.3506 224.705 25.8509C224.204 26.4734 223.852 27.2195 223.681 28.0234C223.39 27.5886 223.069 27.1792 222.719 26.7989L220.915 24.8503C220.537 24.4507 220.033 24.2205 219.504 24.2058C218.975 24.1912 218.461 24.3932 218.064 24.7713L216.602 26.1801C216.255 26.5268 216.028 26.9905 215.957 27.4953C215.886 28.0001 215.976 28.516 216.212 28.9582Z" fill="#5C33FF"/>
<path opacity="0.7" d="M216.212 28.9582L217.638 31.5915C217.638 31.5915 218.722 35.0411 220.903 35.6731L226.824 33.606L226.52 33.0662C225.765 31.8285 225.85 29.419 226.106 27.4177C226.362 25.4164 225.411 25.3506 224.705 25.8509C224.204 26.4734 223.852 27.2195 223.681 28.0234C223.39 27.5886 223.069 27.1792 222.719 26.7989L220.915 24.8503C220.537 24.4507 220.033 24.2205 219.504 24.2058C218.975 24.1912 218.461 24.3932 218.064 24.7713L216.602 26.1801C216.255 26.5268 216.028 26.9905 215.957 27.4953C215.886 28.0001 215.976 28.516 216.212 28.9582Z" fill="white"/>
<path d="M271.507 19.4783C264.939 21.3596 258.647 24.2271 252.817 27.997C251.907 28.6122 251.193 29.5132 250.771 30.5793C250.348 31.6453 250.237 32.8254 250.453 33.9614C252.805 46.3906 258.153 63.033 263.928 73.6321L290.866 61.5847C291.049 56.4498 284.507 39.8337 277.842 23.7706C276.648 20.8871 274.345 18.741 271.507 19.4783Z" fill="#5C33FF"/>
<path opacity="0.8" d="M271.507 19.4783C264.939 21.3596 258.647 24.2271 252.817 27.997C251.907 28.6122 251.193 29.5132 250.771 30.5793C250.348 31.6453 250.237 32.8254 250.453 33.9614C252.805 46.3906 258.153 63.033 263.928 73.6321L290.866 61.5847C291.049 56.4498 284.507 39.8337 277.842 23.7706C276.648 20.8871 274.345 18.741 271.507 19.4783Z" fill="white"/>
<path opacity="0.3" d="M282.017 33.9482L276.668 32.0127C277.887 35.3965 282.187 39.6756 285.197 42.1904C284.222 39.5571 283.138 36.7921 282.017 33.9482Z" fill="#5C33FF"/>
<path d="M269.739 6.44318C267.51 1.86124 262.697 -0.442894 256.922 0.0705994C252.049 0.51826 247.735 5.89018 248.247 8.78681C248.759 11.6834 252.853 12.9211 253.632 13.9217L250.258 16.555C249.858 16.8669 249.52 17.2629 249.266 17.7193C249.012 18.1757 248.845 18.683 248.777 19.2107C248.709 19.7384 248.74 20.2756 248.869 20.7899C248.997 21.3042 249.221 21.7851 249.526 22.2035C250.952 24.1521 252.828 26.1534 253.913 27.6281C263.245 27.3647 270.154 23.5201 272.651 19.8203C271.713 15.1331 271.908 10.9988 269.739 6.44318Z" fill="#5C33FF"/>
<path opacity="0.8" d="M269.739 6.44318C267.51 1.86124 262.697 -0.442894 256.922 0.0705994C252.049 0.51826 247.735 5.89018 248.247 8.78681C248.759 11.6834 252.853 12.9211 253.632 13.9217L250.258 16.555C249.858 16.8669 249.52 17.2629 249.266 17.7193C249.012 18.1757 248.845 18.683 248.777 19.2107C248.709 19.7384 248.74 20.2756 248.869 20.7899C248.997 21.3042 249.221 21.7851 249.526 22.2035C250.952 24.1521 252.828 26.1534 253.913 27.6281C263.245 27.3647 270.154 23.5201 272.651 19.8203C271.713 15.1331 271.908 10.9988 269.739 6.44318Z" fill="white"/>
<path d="M265.157 9.28668C265.819 11.1229 265.963 13.1301 265.57 15.0547C265.178 16.9793 264.265 18.7348 262.949 20.0993C261.634 21.4639 259.973 22.3761 258.177 22.7209C256.381 23.0656 254.532 22.8273 252.861 22.0361C251.191 21.2449 249.775 19.9363 248.793 18.2757C247.811 16.6151 247.306 14.6771 247.343 12.7066C247.379 10.7362 247.956 8.82172 248.999 7.20526C250.043 5.5888 251.506 4.34292 253.205 3.62508C255.484 2.66528 258.024 2.72239 260.265 3.78388C262.505 4.84537 264.265 6.82448 265.157 9.28668Z" fill="#263238"/>
<path d="M344.265 127.943C344.131 123.611 343.948 123.993 343.838 120.346C343.765 118.108 343.753 115.619 343.741 113.473C343.737 112.454 343.407 111.468 342.808 110.681C342.208 109.894 341.376 109.355 340.451 109.155C338.843 108.799 337.223 108.47 335.578 108.101C333.47 107.614 331.387 107.087 329.328 106.442C327.719 105.942 326.135 105.389 324.564 104.77C322.992 104.151 321.225 103.453 319.593 102.637C317.668 101.755 315.767 100.807 313.891 99.8195C311.783 98.7398 309.7 97.6075 307.616 96.462C299.599 82.1237 299.429 72.6702 290.827 61.584L272.356 70.6162C272.356 70.6162 285.929 96.6332 295.164 107.667C300.489 114.013 308.835 116.883 316.279 118.964C321.652 120.451 327.098 121.597 332.544 122.69C334.664 123.111 336.967 123.269 338.794 124.638C340.146 125.759 341.074 127.374 341.402 129.181C341.483 129.549 341.556 129.918 341.621 130.287C341.852 131.393 344.35 130.55 344.265 127.943Z" fill="#5C33FF"/>
<path opacity="0.8" d="M344.265 127.943C344.131 123.611 343.948 123.993 343.838 120.346C343.765 118.108 343.753 115.619 343.741 113.473C343.737 112.454 343.407 111.468 342.808 110.681C342.208 109.894 341.376 109.355 340.451 109.155C338.843 108.799 337.223 108.47 335.578 108.101C333.47 107.614 331.387 107.087 329.328 106.442C327.719 105.942 326.135 105.389 324.564 104.77C322.992 104.151 321.225 103.453 319.593 102.637C317.668 101.755 315.767 100.807 313.891 99.8195C311.783 98.7398 309.7 97.6075 307.616 96.462C299.599 82.1237 299.429 72.6702 290.827 61.584L272.356 70.6162C272.356 70.6162 285.929 96.6332 295.164 107.667C300.489 114.013 308.835 116.883 316.279 118.964C321.652 120.451 327.098 121.597 332.544 122.69C334.664 123.111 336.967 123.269 338.794 124.638C340.146 125.759 341.074 127.374 341.402 129.181C341.483 129.549 341.556 129.918 341.621 130.287C341.852 131.393 344.35 130.55 344.265 127.943Z" fill="white"/>
<path opacity="0.3" d="M334.897 107.93C334.165 107.759 333.434 107.588 332.691 107.391C332.752 111.946 330.778 119.793 330.06 122.177L332.374 122.651C333.892 117.908 334.742 112.946 334.897 107.93Z" fill="#5C33FF"/>
<path opacity="0.3" d="M343.786 113.474C343.783 112.457 343.455 111.472 342.858 110.685C342.261 109.899 341.431 109.358 340.509 109.155L339.291 108.905C339.486 110.402 340.195 111.765 341.276 112.724C341.972 113.418 342.806 113.932 343.713 114.225C343.786 113.988 343.786 113.724 343.786 113.474Z" fill="#5C33FF"/>
<path d="M263.437 9.36597C263.924 11.3673 261.853 13.4607 260.208 11.7359C258.673 9.9572 256.993 8.33119 255.189 6.8775C253.495 5.73202 255.749 3.73071 258.417 4.50753C259.556 4.81664 260.608 5.42045 261.482 6.26686C262.357 7.11328 263.028 8.1769 263.437 9.36597Z" fill="white"/>
<path d="M263.569 72.9871C262.716 73.3294 264.276 74.9094 264.276 74.9094C264.276 74.9094 281.333 68.6026 291.689 62.1116C291.714 61.7186 291.652 61.3248 291.508 60.963C291.364 60.6012 291.142 60.2817 290.861 60.0312C281.997 64.9036 272.885 69.2292 263.569 72.9871Z" fill="#5C33FF"/>
<path opacity="0.5" d="M263.569 72.9871C262.716 73.3294 264.276 74.9094 264.276 74.9094C264.276 74.9094 281.333 68.6026 291.689 62.1116C291.714 61.7186 291.652 61.3248 291.508 60.963C291.364 60.6012 291.142 60.2817 290.861 60.0312C281.997 64.9036 272.885 69.2292 263.569 72.9871Z" fill="white"/>
<path d="M276.123 18.6093C279.486 20.4526 282.642 22.3881 285.87 24.5343C287.442 25.6139 289.002 26.7067 290.549 27.8917C292.096 29.0767 293.631 30.288 295.179 31.6573L295.751 32.1708L296.47 32.8818C296.899 33.296 297.305 33.7355 297.689 34.1985C298.078 34.6593 298.407 35.107 298.724 35.5151C299.041 35.9233 299.382 36.4104 299.662 36.8318C300.798 38.5244 301.847 40.2826 302.806 42.0984C304.694 45.6195 306.324 49.2955 307.679 53.0924C307.93 53.8098 307.943 54.5988 307.716 55.3253C307.489 56.0518 307.036 56.671 306.435 57.0775C305.833 57.4841 305.12 57.6529 304.416 57.5553C303.712 57.4576 303.061 57.0996 302.574 56.542L302.513 56.463C300.077 53.6585 297.725 50.7092 295.362 47.9574C292.998 45.2057 290.598 42.4144 288.612 41.1899C285.846 39.3334 282.764 37.4769 279.705 35.6599L270.495 30.13C269.066 29.3129 267.997 27.9161 267.522 26.2469C267.046 24.5777 267.204 22.7729 267.96 21.2295C268.716 19.686 270.009 18.5304 271.554 18.0168C273.098 17.5032 274.768 17.6737 276.197 18.4908L276.123 18.6093Z" fill="#5C33FF"/>
<path opacity="0.8" d="M276.123 18.6093C279.486 20.4526 282.642 22.3881 285.87 24.5343C287.442 25.6139 289.002 26.7067 290.549 27.8917C292.096 29.0767 293.631 30.288 295.179 31.6573L295.751 32.1708L296.47 32.8818C296.899 33.296 297.305 33.7355 297.689 34.1985C298.078 34.6593 298.407 35.107 298.724 35.5151C299.041 35.9233 299.382 36.4104 299.662 36.8318C300.798 38.5244 301.847 40.2826 302.806 42.0984C304.694 45.6195 306.324 49.2955 307.679 53.0924C307.93 53.8098 307.943 54.5988 307.716 55.3253C307.489 56.0518 307.036 56.671 306.435 57.0775C305.833 57.4841 305.12 57.6529 304.416 57.5553C303.712 57.4576 303.061 57.0996 302.574 56.542L302.513 56.463C300.077 53.6585 297.725 50.7092 295.362 47.9574C292.998 45.2057 290.598 42.4144 288.612 41.1899C285.846 39.3334 282.764 37.4769 279.705 35.6599L270.495 30.13C269.066 29.3129 267.997 27.9161 267.522 26.2469C267.046 24.5777 267.204 22.7729 267.96 21.2295C268.716 19.686 270.009 18.5304 271.554 18.0168C273.098 17.5032 274.768 17.6737 276.197 18.4908L276.123 18.6093Z" fill="white"/>
<path d="M310.561 59.6618L309.526 56.8573C309.526 56.8573 308.953 53.276 306.894 52.2754L300.802 53.3155L301.009 53.8949C301.57 55.2115 301.143 57.621 300.595 59.5433C300.047 61.4656 300.973 61.7158 301.753 61.3339C302.191 61.1233 302.618 60.2675 303.081 59.359C303.308 59.8167 303.564 60.2566 303.848 60.6756L305.347 62.9008C305.66 63.3619 306.123 63.6779 306.643 63.7853C307.162 63.8928 307.701 63.7837 308.149 63.4801L309.806 62.3346C310.194 62.0478 310.48 61.627 310.617 61.1412C310.754 60.6555 310.735 60.1338 310.561 59.6618Z" fill="#5C33FF"/>
<path opacity="0.8" d="M310.561 59.6618L309.526 56.8573C309.526 56.8573 308.953 53.276 306.894 52.2754L300.802 53.3155L301.009 53.8949C301.57 55.2115 301.143 57.621 300.595 59.5433C300.047 61.4656 300.973 61.7158 301.753 61.3339C302.191 61.1233 302.618 60.2675 303.081 59.359C303.308 59.8167 303.564 60.2566 303.848 60.6756L305.347 62.9008C305.66 63.3619 306.123 63.6779 306.643 63.7853C307.162 63.8928 307.701 63.7837 308.149 63.4801L309.806 62.3346C310.194 62.0478 310.48 61.627 310.617 61.1412C310.754 60.6555 310.735 60.1338 310.561 59.6618Z" fill="white"/>
<path opacity="0.3" d="M270.978 33.751L269.492 33.8826L260.366 57.6877C260.865 57.7264 261.366 57.682 261.853 57.556C261.853 57.556 273.744 52.7634 277.338 50.9728C274.926 45.5877 270.978 33.751 270.978 33.751Z" fill="#5C33FF"/>
<path d="M254.323 39.9911C255.431 46.2138 257.49 52.194 260.414 57.6869C264.874 56.0279 272.306 52.8942 275.912 51.1036C273.488 45.488 271.337 39.7396 269.467 33.8818C265.653 34.1583 257.283 37.6211 254.323 39.9911Z" fill="white"/>
<path opacity="0.3" d="M263.377 45.1395C263.199 45.7833 262.848 46.3556 262.369 46.784C261.89 47.2123 261.304 47.4775 260.685 47.5458C260.066 47.6142 259.443 47.4827 258.893 47.1681C258.344 46.8534 257.893 46.3697 257.598 45.7781C257.303 45.1865 257.177 44.5137 257.236 43.8447C257.295 43.1757 257.536 42.5406 257.929 42.0197C258.322 41.4989 258.849 41.1158 259.444 40.9188C260.038 40.7218 260.673 40.7198 261.269 40.913C262.067 41.1719 262.737 41.7624 263.132 42.5549C263.527 43.3474 263.615 44.2769 263.377 45.1395Z" fill="#5C33FF"/>
<path opacity="0.6" d="M265.705 40.6109C265.657 40.8307 265.549 41.0298 265.395 41.1822C265.241 41.3345 265.048 41.433 264.841 41.4646C264.634 41.4962 264.424 41.4595 264.236 41.3593C264.049 41.2592 263.894 41.1002 263.792 40.9033C263.69 40.7064 263.646 40.4807 263.665 40.2559C263.683 40.0312 263.765 39.8178 263.898 39.6438C264.031 39.4697 264.209 39.3433 264.41 39.2809C264.611 39.2185 264.824 39.2232 265.022 39.2943C265.269 39.3796 265.477 39.5629 265.603 39.8073C265.73 40.0517 265.766 40.3389 265.705 40.6109Z" fill="#5C33FF"/>
<path opacity="0.6" d="M268.434 39.4642C268.406 39.6169 268.348 39.7615 268.265 39.8887C268.181 40.0159 268.074 40.1229 267.951 40.2029C267.827 40.2828 267.689 40.3339 267.546 40.353C267.403 40.372 267.258 40.3585 267.12 40.3134C266.982 40.2683 266.854 40.1926 266.744 40.091C266.635 39.9894 266.547 39.8643 266.484 39.7236C266.422 39.5829 266.388 39.4298 266.384 39.274C266.38 39.1183 266.406 38.9633 266.461 38.819C266.5 38.6797 266.564 38.55 266.649 38.4375C266.735 38.325 266.84 38.2318 266.959 38.1633C267.078 38.0948 267.208 38.0523 267.342 38.0383C267.476 38.0243 267.611 38.0391 267.74 38.0817C268.001 38.1671 268.22 38.36 268.35 38.6188C268.48 38.8776 268.51 39.1813 268.434 39.4642Z" fill="#5C33FF"/>
<path opacity="0.5" d="M272.261 49.7215L260.991 54.5273L260.321 52.131L271.578 47.3252L272.261 49.7215Z" fill="#5C33FF"/>
<path opacity="0.2" d="M208.356 207.082C208.33 214.749 207.644 222.397 206.309 229.926C204.871 236.694 202.637 241.644 199.608 244.778C198.197 246.292 196.521 247.487 194.678 248.294C192.835 249.101 190.862 249.504 188.874 249.479C182.611 249.479 177.831 245.788 174.534 238.406C173.954 237.08 173.462 235.711 173.059 234.311C166.095 240.775 159.61 247.819 153.663 255.377L147.193 263.619C150.675 267.433 154.692 270.628 159.097 273.086C166.683 277.326 176.641 279.45 188.971 279.459C191.14 279.459 193.236 279.393 195.27 279.261C202.73 267.333 208.903 254.522 213.668 241.078L231.761 190.098L208.356 207.082Z" fill="black"/>
<path d="M45.2512 276.642L66.5727 299.683L126.273 238.893C105.695 230.401 65.6833 254.509 45.2512 276.642Z" fill="#263238"/>
<path d="M119.608 356.958C112.797 349.584 98.2861 333.916 98.2861 333.916L154.538 269.4C162.348 291.586 140.04 334.864 119.608 356.958Z" fill="#263238"/>
<path d="M201.219 211.731L224.478 163.265L179.63 188.426C165.224 196.499 151.923 206.691 140.106 218.709L63.6528 296.483L101.215 337.076L173.185 254.456C184.311 241.682 193.746 227.303 201.219 211.731Z" fill="#5C33FF"/>
<path opacity="0.6" d="M201.219 211.731L224.478 163.265L179.63 188.426C165.224 196.499 151.923 206.691 140.106 218.709L63.6528 296.483L101.215 337.076L173.185 254.456C184.311 241.682 193.746 227.303 201.219 211.731Z" fill="white"/>
<path d="M153.455 256.996C162.135 256.996 169.172 249.392 169.172 240.011C169.172 230.631 162.135 223.026 153.455 223.026C144.774 223.026 137.738 230.631 137.738 240.011C137.738 249.392 144.774 256.996 153.455 256.996Z" fill="white"/>
<path d="M153.458 250.927C159.036 250.927 163.558 246.04 163.558 240.012C163.558 233.983 159.036 229.097 153.458 229.097C147.88 229.097 143.358 233.983 143.358 240.012C143.358 246.04 147.88 250.927 153.458 250.927Z" fill="#5C33FF"/>
<path opacity="0.3" d="M113.922 322.487L77.1396 282.738L107.258 252.112L142.262 289.953L113.922 322.487Z" fill="#5C33FF"/>
<path d="M53.5754 313.008C26.0402 315.417 16.9146 334.469 13.7956 359.788C12.2117 372.705 11.505 385.779 1.47783 393.337C0.874604 393.78 0.420427 394.422 0.183317 395.167C-0.0537924 395.913 -0.0610736 396.721 0.16256 397.471C0.386195 398.221 0.828714 398.873 1.42384 399.329C2.01897 399.785 2.73467 400.02 3.46377 399.999C40.4292 398.748 57.6691 379.196 59.8378 371.033C59.2686 375.3 58.2508 379.483 56.8041 383.501C56.5382 384.21 56.4861 384.992 56.6553 385.735C56.8245 386.478 57.2063 387.144 57.7464 387.639C58.2865 388.133 58.9573 388.431 59.6631 388.489C60.369 388.548 61.0739 388.364 61.6776 387.965C72.0459 380.947 85.0581 368.017 85.9232 347.043C78.2962 335.365 53.5754 313.008 53.5754 313.008Z" fill="#5C33FF"/>
<path opacity="0.2" d="M53.5754 313.008C26.0402 315.417 16.9146 334.469 13.7956 359.788C12.2117 372.705 11.505 385.779 1.47783 393.337C0.874604 393.78 0.420427 394.422 0.183317 395.167C-0.0537924 395.913 -0.0610736 396.721 0.16256 397.471C0.386195 398.221 0.828714 398.873 1.42384 399.329C2.01897 399.785 2.73467 400.02 3.46377 399.999C40.4292 398.748 57.6691 379.196 59.8378 371.033C59.2686 375.3 58.2508 379.483 56.8041 383.501C56.5382 384.21 56.4861 384.992 56.6553 385.735C56.8245 386.478 57.2063 387.144 57.7464 387.639C58.2865 388.133 58.9573 388.431 59.6631 388.489C60.369 388.548 61.0739 388.364 61.6776 387.965C72.0459 380.947 85.0581 368.017 85.9232 347.043C78.2962 335.365 53.5754 313.008 53.5754 313.008Z" fill="white"/>
<path d="M90.1998 356.035L46.0947 308.372L69.5849 302.882L95.2804 330.65L90.1998 356.035Z" fill="#5C33FF"/>
</svg>
